<svg width="24" height="24" viewBox="0 0 24 24" fill="none" xmlns="http://www.w3.org/2000/svg">
<path d="M2.5 11.5V7.5C2.5 6.39543 3.39543 5.5 4.5 5.5H11.5M2.52693 19.829C2.68385 20.777 3.5075 21.5 4.5 21.5H16.5C17.6046 21.5 18.5 20.6046 18.5 19.5V15.6901M2.52693 19.829C2.50922 19.722 2.5 19.6121 2.5 19.5V16.5M2.52693 19.829L6.34762 16.0083C7.02765 15.4133 8.02219 15.3481 8.774 15.8494L9.2832 16.1888C10.0078 16.6719 10.9619 16.6305 11.642 16.0864L14.2901 13.9679C14.9651 13.4279 15.9053 13.3855 16.6228 13.8484C16.7023 13.8997 16.7731 13.9632 16.84 14.0301L18.5 15.6901M18.5 15.6901L18.5 12.5M18.5 8.5V5.5M18.5 2.5V5.5M18.5 5.5H15.5H21.5M9.5 10.5C9.5 11.6046 8.6046 12.5 7.5 12.5C6.39543 12.5 5.5 11.6046 5.5 10.5C5.5 9.39543 6.39543 8.5 7.5 8.5C8.6046 8.5 9.5 9.39543 9.5 10.5Z" stroke="#394867" stroke-width="2" stroke-linecap="round" stroke-linejoin="round"/>
</svg>
